<?xml version="1.0" encoding="utf-8"?>
<!-- Generator: Adobe Illustrator 20.0.0, SVG Export Plug-In . SVG Version: 6.00 Build 0)  -->
<svg version="1.1" id="svg264744" xmlns:svg="http://www.w3.org/2000/svg"
	 xmlns="http://www.w3.org/2000/svg" xmlns:xlink="http://www.w3.org/1999/xlink" x="0px" y="0px" viewBox="0 0 1012.9 161.3"
	 style="enable-background:new 0 0 1012.9 161.3;" xml:space="preserve">
<style type="text/css">
	.st0{fill:#D52B1E;}
</style>
<path id="path257736" class="st0" d="M113.4,67.2H154c-1.9-10.1-8.6-16.1-18.1-16.1C125.2,51.2,117,57.1,113.4,67.2 M139.5,128.7
	c-27.9,0-48.1-20.2-48.1-48.1c0-28.4,18.8-48.3,45.6-48.3c27.3,0,39.5,21.6,39.5,43c0,2.1-0.3,5.8-0.4,6.2l-0.4,4.2h-62.9
	c2.1,14.3,12.5,23.5,27,23.5c12.2,0,20.6-7.9,21.5-8.8l4.1-4.3l10.8,16.7l-2.8,2.7C173.1,116,160.1,128.7,139.5,128.7 M21,51.4h22.1
	c9,0,14.9-6.1,14.9-15.5c0-9.4-5.6-15-15-15H21C21,20.9,21,51.4,21,51.4z M21,106.8l23.6,0c11.2,0,17.8-6.7,17.8-17.9
	c0-11-7.1-18.2-18-18.2H21L21,106.8L21,106.8z M16,126.6H0.1l0-14.1c0-0.2,0-0.4,0-0.7V1.3h2.2l1.3-0.1h39.9
	c21.6,0,36.1,13.6,36.1,33.9c0,10-3.6,18.6-10.2,24.6c9.4,6,14.8,16.8,14.8,29.7c0,22.3-15.8,37.2-39.4,37.2L16,126.6L16,126.6z
	 M806.4,126.7h-13.8c-9.7,0-14.8-5.1-14.8-14.8V41.2l20.7-11.9l0,78.1h7.9L806.4,126.7L806.4,126.7z M788.6,25.4
	c-7,0-12.7-5.7-12.7-12.7c0-7,5.7-12.7,12.7-12.7c7,0,12.7,5.7,12.7,12.7C801.3,19.7,795.6,25.4,788.6,25.4 M374.6,126.7h-13.8
	c-9.7,0-14.8-5.1-14.8-14.8l0-70.6l20.8-11.9l0,78.1h7.9L374.6,126.7L374.6,126.7z M356.9,25.4c-7,0-12.7-5.7-12.7-12.7
	c0-7,5.7-12.7,12.7-12.7c7,0,12.7,5.7,12.7,12.7C369.6,19.7,363.9,25.4,356.9,25.4 M304.9,126.7h-20.7V34.2h20.5V48
	c5.3-8.8,13.2-14.6,21.5-14.6c2.6,0,5.1,0.5,5.6,0.6l3.6,0.8v20.4l-5.5-0.9c-0.3,0-1.8-0.3-3.3-0.3c-8.7,0-16.2,6.9-19.5,18
	c-1.4,4.4-2.1,9.5-2.1,14.8L304.9,126.7L304.9,126.7z M908.2,126.7h-13.8c-9.7,0-14.8-5.1-14.8-14.8V72.1c0-15-3.2-19.8-13.2-19.8
	c-11.8,0-22.4,8.2-25.6,19.9c-0.8,2.7-1.2,6-1.2,10v44.5h-20.7l0-92.3l4.7-0.2h16v11.1c5.5-6.4,14.7-13,28.2-13
	c21.9,0,32.6,12.1,32.6,36.9v38.3h7.9L908.2,126.7L908.2,126.7z M477.2,126.7h-13.8c-9.7,0-14.8-5.1-14.8-14.8V72.1
	c0-15-3.2-19.8-13.2-19.8c-11.8,0-22.4,8.2-25.6,19.9c-0.8,2.7-1.2,6-1.2,10v44.5h-20.7l0-92.3l4.7-0.2h16v11.1
	c5.5-6.4,14.7-13,28.2-13c21.9,0,32.6,12.1,32.6,36.9v38.3h7.9V126.7L477.2,126.7z M524.3,52c-13.4,0-20.8,9.5-20.8,26.8
	c0,17,8.7,27.9,22.3,27.9c13.3,0,20-9.3,20-27.7C545.7,60.3,539.1,52,524.3,52 M521.6,161.3c-9.8,0-20.2-2.5-29.2-7.1l-4-2l8.3-18.2
	l4.5,2.5c0.1,0,9.4,5.2,20.1,5.2c15.6,0,24.3-7.6,24.3-21.3v-0.6c-5.7,4.3-12.9,6.5-21.5,6.5c-24.5,0-41.7-19.4-41.7-47.3
	c0-28.3,16-46.6,40.7-46.6c10.9,0,18.1,3.7,23.2,8.7l0-6.9h20.1l-0.1,85.9C566.3,150.5,543.2,161.3,521.6,161.3 M955.8,127.3
	c-10.1,0-33.6-3.5-33.6-35.6V53.1h-10.9V34.3h11V18.9L942.9,7v27.3h20.8v18.9h-20.8v37.5c0,11.4,4.7,17.2,13.9,17.2
	c1.4,0,2.3-0.2,2.6-0.2l5.9-1.3v19.9l-4,0.7C961.3,127,959,127.3,955.8,127.3 M719.3,52c-15.5,0-27.6,12.3-27.6,28.1
	c0,16.3,12.1,29.1,27.6,29.1c15.4,0,27.4-12.8,27.4-29.1C746.7,64.3,734.6,52,719.3,52 M719.3,128.7c-27.3,0-48.6-21.4-48.6-48.6
	c0-26.8,21.3-47.8,48.5-47.8c27.3,0,48.6,21,48.6,47.8C767.7,107.3,746.4,128.7,719.3,128.7 M607.7,61.5h20.5
	c12.9,0,20.6-7.7,20.6-20.5c0-12.5-7.6-20-20.5-20h-20.6V61.5z M607.7,126.7h-21.1l0-125.4h43c23.9,0,40.5,16.3,40.5,39.7
	c0,23.7-16.7,40.2-40.5,40.2h-22L607.7,126.7L607.7,126.7z M242,83.6c-25.7,0-37.2,4.7-37.2,15.2c0,5.9,5.5,11.8,15.8,11.8
	c13.8,0,21.1-10.1,21.1-27.2L242,83.6L242,83.6z M218.6,128.7c-16.4,0-32.9-10.1-32.9-29.3c0-33.3,41.4-33.4,55.3-33.4
	c-0.7-9.8-5.5-14.1-15.8-14.1c-11.7,0-20.4,6.8-20.4,6.9l-4.2,3.4l-10.2-16.6l3-2.6c0.5-0.4,12.5-10.6,32.6-10.6
	c22.7,0,35.7,13.3,35.7,36.6v38.6h9.8v19.2h-15.3c-8.1,0-11.8-3.9-13.4-9.1C237.6,123.3,229.9,128.7,218.6,128.7"/>
<path id="path257740" class="st0" d="M1001,108.7c-0.7-0.4-1.9-0.6-3.4-0.6h-2.4v5.8h2.6c1.2,0,2.1-0.1,2.7-0.4
	c1.1-0.4,1.7-1.3,1.7-2.5C1002.1,109.9,1001.7,109.1,1001,108.7 M998,106.2c2,0,3.5,0.2,4.4,0.6c1.7,0.7,2.5,2.1,2.5,4.1
	c0,1.4-0.5,2.5-1.6,3.2c-0.6,0.4-1.3,0.6-2.3,0.8c1.3,0.2,2.2,0.7,2.8,1.6c0.6,0.9,0.9,1.7,0.9,2.5v1.2c0,0.4,0,0.8,0,1.2
	c0,0.4,0.1,0.7,0.1,0.8l0.1,0.2h-2.7c0-0.1,0-0.1,0-0.2c0-0.1,0-0.1,0-0.2l-0.1-0.5v-1.3c0-1.9-0.5-3.1-1.5-3.7
	c-0.6-0.3-1.6-0.5-3.2-0.5h-2.2v6.3h-2.8v-16.1L998,106.2L998,106.2z M989.3,105.4c-2.4,2.5-3.7,5.4-3.7,8.9c0,3.5,1.2,6.5,3.7,9
	c2.4,2.5,5.4,3.7,8.9,3.7c3.5,0,6.5-1.2,8.9-3.7c2.4-2.5,3.7-5.5,3.7-9c0-3.5-1.2-6.5-3.7-8.9c-2.5-2.5-5.4-3.7-8.9-3.7
	C994.8,101.7,991.8,102.9,989.3,105.4 M1008.6,124.7c-2.9,2.9-6.3,4.3-10.4,4.3c-4.1,0-7.5-1.4-10.4-4.3c-2.8-2.9-4.3-6.3-4.3-10.4
	c0-4,1.4-7.5,4.3-10.3c2.8-2.8,6.3-4.3,10.3-4.3c4.1,0,7.5,1.4,10.4,4.3c2.9,2.8,4.3,6.3,4.3,10.3
	C1012.9,118.3,1011.5,121.8,1008.6,124.7"/>
</svg>
