<svg id="Layer_1" data-name="Layer 1" xmlns="http://www.w3.org/2000/svg" viewBox="0 0 472.25 73.63"><defs><style>.cls-1{fill:#fff;}</style></defs><title>Abaster-Logo-white</title><path class="cls-1" d="M66,169H.05V160.2c0-.57.18-.82.76-.76H38.13a11.64,11.64,0,0,0,1.46-.06c.31,0,.62.06.93.06H65.24a7.52,7.52,0,0,0,1.06-.05,14.36,14.36,0,0,1,1.47,0H197.18a14.35,14.35,0,0,0,1.6-.06c.35,0,.71.07,1.06.07h24.79a2.34,2.34,0,0,0,1.18-.13,5.9,5.9,0,0,0,2,.13h242.6c1.83,0,1.83,0,1.83,1.82v6.94c0,.61-.12.93-.8.86a11.74,11.74,0,0,0-1.2,0H67.85Z" transform="translate(-0.05 -95.4)"/><path class="cls-1" d="M39.54,95.47c.26,0,.53.06.79.06H65.45a4.19,4.19,0,0,0,.79-.05,5.77,5.77,0,0,1,.93,0h66.3c.4,0,.79-.05,1.19-.08s.89.09,1.33.09h334.4c1.91,0,1.91,0,1.91,1.88,0,1.6,0,1.6-1.63,1.6h-305c-.53,0-1.06-.05-1.6-.05H68a16.67,16.67,0,0,0-1.73.06,14.23,14.23,0,0,1-1.6,0H1.1A20.48,20.48,0,0,1,1,96.2c0-.54.23-.7.72-.66H38.08C38.57,95.52,39.05,95.47,39.54,95.47Z" transform="translate(-0.05 -95.4)"/><path class="cls-1" d="M163.19,123.25a8.38,8.38,0,0,0,.55-2.18,1.92,1.92,0,0,1,.13-.65,14.72,14.72,0,0,1,6.74-7.4,18.38,18.38,0,0,1,7.59-1.52c1.6,0,3.16.47,4.77.36a1.2,1.2,0,0,1,.64.14,3.46,3.46,0,0,0,3.63-.18c1.23-.69,1.92-.33,1.87,1a25.09,25.09,0,0,0,.71,6.73c.36,1.52.2,1.78-.92,2.39-.89-.2-1.25-.91-1.59-1.64.29-1.64-.75-2.88-1.66-3.87a8.48,8.48,0,0,0-5-2.71,15.2,15.2,0,0,1-2.9-.34,1.47,1.47,0,0,0-1,.06c-1.51.73-3.19,1.08-4.54,2.16a10,10,0,0,0-2.78,3.67,18.26,18.26,0,0,1-1.19,2.95c-.3.42-.17,1-.16,1.57q.25,2.49.26,5a4.11,4.11,0,0,0,.12,1.45,12.31,12.31,0,0,0,3,5.55c.35.43.48,1.15,1.16,1.21a2.85,2.85,0,0,1,1.49.8,8.76,8.76,0,0,0,5,1.66c.77,0,1.57-.45,2.28.21a.44.44,0,0,0,.38,0c2.06-.86,4.27-1.44,5.83-3.23a12,12,0,0,0,1.73-2,1,1,0,0,1,1.16-.46c.53.15.54.64.56,1.09a1.53,1.53,0,0,1-.24.89,22.33,22.33,0,0,1-3.16,3.93,11.38,11.38,0,0,1-4.66,2.64,8,8,0,0,1-5,.82,1.21,1.21,0,0,0-.63.17,2.84,2.84,0,0,1-1.82.08c-.6-.14-1.22-.23-1.82-.36a13.61,13.61,0,0,1-4.81-2.1c-.68-.46-1-1.38-1.82-1.64-.21-1-1.12-1.45-1.68-2.17a4.23,4.23,0,0,1-1-2.11A1.93,1.93,0,0,0,164,134c-1.09-1.1-1.1-2.56-1.11-3.93,0-.79.05-1.58,0-2.37A7.89,7.89,0,0,1,163.19,123.25Z" transform="translate(-0.05 -95.4)"/><path class="cls-1" d="M14.21,132c-2.17,0-3.51.75-4.08,2.51a9.86,9.86,0,0,0-.61,3.52,2.88,2.88,0,0,0,1.81,2.57c.54.21,1.1.37,1.62.6a1,1,0,0,1,.68,1,1.32,1.32,0,0,1-.85,1.24,2.74,2.74,0,0,1-1.84,0,8.91,8.91,0,0,0-4.48-.05,18.88,18.88,0,0,1-3.59.18,1.67,1.67,0,0,1-.65-.13c-.53-.23-1.13-.48-1.1-1.18s.6-.8,1.12-1A7.73,7.73,0,0,0,7.49,136c.34-1.08.82-2.11,1.19-3.2,1-2.82,1.48-5.77,2.66-8.51a7.14,7.14,0,0,0,.61-2.58,6.32,6.32,0,0,1,1.08-3.2,7,7,0,0,0,1.36-3.29,1.38,1.38,0,0,1,.38-.84,14.3,14.3,0,0,1,2.46-2.24c.65-.45,1-.37,1.4.32a8.25,8.25,0,0,1,.69,1.73c.56,2.14,1,4.31,1.64,6.43a19.7,19.7,0,0,0,1.33,2.57,34.24,34.24,0,0,1,1.38,4.72,7.16,7.16,0,0,0,1.26,3,1.38,1.38,0,0,1,.29.73,19.78,19.78,0,0,0,1.07,3.15,3.55,3.55,0,0,1,.34.86A7.45,7.45,0,0,0,28,138.85,4.63,4.63,0,0,0,31,141c.39.1.78.15,1.18.23.66.13.84.61.81,1.19a.87.87,0,0,1-.86.88H32a12,12,0,0,1-2.39-.12,11.62,11.62,0,0,0-2-.19,8.29,8.29,0,0,1-2.36-.24,3.93,3.93,0,0,0-2.11.14,11.25,11.25,0,0,1-3.05.19c-.4,0-.84,0-.85-.6a.87.87,0,0,1,.69-1c.48-.11,1-.18,1.43-.32.95-.27,1-.41,1-1.41,0-1.52-.47-3-.54-4.48a4.32,4.32,0,0,0-.75-1.84c-1-1.75-1.46-1.74-2.86-1.21a2.43,2.43,0,0,1-1.71.05A6.75,6.75,0,0,0,14.21,132Zm2-2.64h2.4a1.2,1.2,0,0,0,1.17-1.76,15.63,15.63,0,0,0-1.45-2.89A8.71,8.71,0,0,1,17,121.58a6.22,6.22,0,0,0-.71-2c-.49-.83-.83-.85-1.29,0a5.74,5.74,0,0,0-.29.6,38,38,0,0,0-2.21,6.7,7.35,7.35,0,0,0-.2,1.58c0,.8.29,1.13,1,1,1-.18,1.95,0,2.88-.08Z" transform="translate(-0.05 -95.4)"/><path class="cls-1" d="M409.6,143.33a22.65,22.65,0,0,1-4-.53,1.9,1.9,0,0,0-1.19,0c-1.77.6-3.61.21-5.41.38a3,3,0,0,1-1-.14.94.94,0,0,1-.69-1,.83.83,0,0,1,.68-.86,9.93,9.93,0,0,1,2.11-.29c2.11-.19,3-1.26,2.65-3.37,0-.18-.12-.39,0-.52.49-1,0-2,0-3.07a29.17,29.17,0,0,1,.3-3.18,11.65,11.65,0,0,0,0-2.79,4.51,4.51,0,0,1,.17-2.36,1.35,1.35,0,0,0,0-.92,5.8,5.8,0,0,1-.06-3.15,3.28,3.28,0,0,0-.19-1.71,4.23,4.23,0,0,1-.21-1.42,2.7,2.7,0,0,0-2.22-2.57,9.28,9.28,0,0,1-2.4-.77c-.45-.23-.9-.48-.73-1.1s.68-.7,1.16-.7a13.91,13.91,0,0,1,2.38.21,13.39,13.39,0,0,0,4.64-.15c2.11-.34,4.26-.24,6.34-.76a2.32,2.32,0,0,1,.66,0c.5,0,1,.08,1.19.65s-.36.69-.66,1a4.79,4.79,0,0,1-3.14,1.53,3.84,3.84,0,0,0-1,.35,1.61,1.61,0,0,0-1.2,1.82c.11,1.27-.19,2.59.38,3.81.13.29-.06.52-.15.75a5,5,0,0,0-.29,3.13,5.64,5.64,0,0,1,0,1.19c0,1.92.66,3.85,0,5.77a23.48,23.48,0,0,1,.11,4.38c0,1.29.14,2.59,1.44,3.38a1.65,1.65,0,0,0,1.51.27,2.67,2.67,0,0,1,2,.18,1.11,1.11,0,0,1,.74,1.27,1,1,0,0,1-1,1C411.21,143,410.19,143.47,409.6,143.33Z" transform="translate(-0.05 -95.4)"/><path class="cls-1" d="M359.92,141.85a2,2,0,0,1,0,.27c-.06.42.19.93-.31,1.21s-1-.06-1.45-.36a3.29,3.29,0,0,1-.78-.72c-1.48-2.05-3.42-3.73-4.83-5.83a1.39,1.39,0,0,0-.35-.4c-2-1.28-3.36-3.15-5-4.75-.37-.35-.67-1-1.28-.77s-.25.93-.24,1.41c0,1.82.08,3.64.25,5.46.11,1.24.45,2.45.46,3.7,0,.4.22.54.57.59l1.58.23c.32,0,.62.13.63.54a.8.8,0,0,1-.6.91,2.12,2.12,0,0,1-1.31.06,10.07,10.07,0,0,0-4.36-.22,4.64,4.64,0,0,1-1.59-.08c-.62-.15-.76-.59-.35-1a1.81,1.81,0,0,1,1.22-.46c1.52-.19,1.9-.47,1.85-2-.06-2,.17-4.08-.06-6.11a5,5,0,0,1,0-1.86,5.06,5.06,0,0,0-2.68-5.67,8.39,8.39,0,0,1-1.16-.65.88.88,0,0,1-.4-.92c.07-.43.4-.47.77-.58,1.44-.45,2.8.13,4.19.25a.61.61,0,0,1,.35.19c1.4,1.48,3.18,2.58,4.28,4.33a5,5,0,0,0,1.56,1.6,4.49,4.49,0,0,1,1.57,1.61c.94,1.73,2.66,2.72,3.87,4.19.39.48,1.27.11,1.41-.54a2.08,2.08,0,0,0,0-.66,4.61,4.61,0,0,1-.18-1.31c.34-1.88-.53-3.68-.32-5.54a3,3,0,0,0,0-.67c-.1-.92-.27-1.08-1.18-.92a4.13,4.13,0,0,1-1.71-.07c-1-.22-1.18-.62-1-1.79.13-.79.48-1,1.47-.86a6.32,6.32,0,0,0,2.64.13,8.77,8.77,0,0,1,1.85-.18,7.93,7.93,0,0,1,2,.18c.36.08.83-.13,1,.41a1.59,1.59,0,0,1-.43,1.7,3.84,3.84,0,0,1-1.36.82,1.4,1.4,0,0,0-1.12,1.45c-.2,2.16-.3,4.33-.41,6.5a3,3,0,0,0,.13,1.18,6.82,6.82,0,0,1,.38,2.36C359.43,139.47,359.95,140.6,359.92,141.85Z" transform="translate(-0.05 -95.4)"/><path class="cls-1" d="M231.33,125c0-1.21.35-1.57,1.53-1.36a9,9,0,0,0,3.29,0,7.82,7.82,0,0,1,3.18.13c.37.09.86-.1,1,.44a1.39,1.39,0,0,1-.35,1.59,4.32,4.32,0,0,1-1.46.9,1.31,1.31,0,0,0-1.07,1.34c-.12,2.21-.51,4.4-.49,6.63a3.64,3.64,0,0,0,.2,1.31,5.93,5.93,0,0,1,.34,2.09,7.49,7.49,0,0,0,.39,2.49,5.73,5.73,0,0,1,.11,2.12c0,.68-.41.93-1.06.7a3.35,3.35,0,0,1-1.56-1.21c-.91-1.2-2-2.29-2.91-3.46-.67-.82-1.4-1.58-2-2.46s-1.57-1.24-2.28-2c-1-1-1.94-2.08-3-3.06a4.4,4.4,0,0,0-.69-.62c-.48-.29-1,0-.87.52.25,1.77.07,3.56.27,5.33.17,1.45.41,2.9.49,4.36,0,.73.34.91,1,.94a10.61,10.61,0,0,1,1.19.17c.37.06.72.16.7.63a.82.82,0,0,1-.68.86,2.08,2.08,0,0,1-1.18.05,10.24,10.24,0,0,0-4.49-.23,4.52,4.52,0,0,1-1.59-.1.55.55,0,0,1-.32-1,1.79,1.79,0,0,1,1.32-.53c1.45-.17,1.6-.32,1.78-1.77a2.46,2.46,0,0,0,.07-.66c-.31-1.85.16-3.71-.12-5.57a8.71,8.71,0,0,1,.13-2.37,4.94,4.94,0,0,0-2.81-5.25,3.66,3.66,0,0,1-1.25-.75c-.55-.6-.37-1.14.39-1.37,1.47-.45,2.88.07,4.32.24a.63.63,0,0,1,.34.2c1.4,1.48,3.18,2.59,4.28,4.34a4.58,4.58,0,0,0,1.46,1.51,4.63,4.63,0,0,1,1.6,1.59,14.06,14.06,0,0,0,2.94,3.24c.29.27.54.58.81.88s.47.57.89.33.87-.45.71-1c-.43-1.52,0-3.11-.38-4.62a12.38,12.38,0,0,1-.15-2.79c-.07-1.41-.16-1.5-1.54-1.35a4.21,4.21,0,0,1-1.45-.14C231.44,126.05,231.33,125.94,231.33,125Z" transform="translate(-0.05 -95.4)"/><path class="cls-1" d="M421.91,133.47a66,66,0,0,0,.66,7.56c.06.46.28.59.68.63s1,.13,1.45.21.63.11.64.53-.09.8-.56.93a2.15,2.15,0,0,1-1.31.07,10,10,0,0,0-4.36-.22,5.13,5.13,0,0,1-1.59-.07c-.26-.06-.55-.08-.56-.44a.82.82,0,0,1,.3-.7,2.2,2.2,0,0,1,1.26-.38c1.33-.14,1.64-.4,1.68-1.7.06-1.68,0-3.37,0-5.06,0-1.33.06-2.65.12-4a4.82,4.82,0,0,0-2.82-4.88,7.55,7.55,0,0,1-1.15-.66.88.88,0,0,1-.41-.92c.09-.42.43-.46.79-.57,1.44-.46,2.8.13,4.19.26a.6.6,0,0,1,.35.19c1.39,1.48,3.17,2.59,4.28,4.34a4.62,4.62,0,0,0,1.46,1.52,4.61,4.61,0,0,1,1.68,1.69c.93,1.73,2.69,2.69,3.85,4.2a.56.56,0,0,0,.78.14l.05,0c.33-.23.76-.46.62-.92-.46-1.51,0-3.1-.4-4.62a23.87,23.87,0,0,1-.19-3.19c-.17-1.12-.2-1.15-1.36-1a3.93,3.93,0,0,1-1.19,0c-1.3-.21-1.46-.44-1.34-1.78.07-.77.36-1.13,1.1-1a14.62,14.62,0,0,0,4.49,0,7,7,0,0,1,2.38.16c.37.09.83-.09,1,.45a1.37,1.37,0,0,1-.37,1.58,4.32,4.32,0,0,1-1.47.9,1.38,1.38,0,0,0-1.09,1.48c0,1.73-.43,3.42-.4,5.14a9.51,9.51,0,0,0,.33,3.43,4,4,0,0,1,.16,1.32,8,8,0,0,0,.4,2.62,5,5,0,0,1,.11,2c0,.7-.41.94-1.07.72a3.21,3.21,0,0,1-1.56-1.21,34.08,34.08,0,0,0-2.85-3.33c-1.17-1.25-2.06-2.72-3.51-3.76a28.14,28.14,0,0,1-3.46-3.5l-.76-.75c-.26-.27-.57-.48-.94-.29s-.23.54-.21.83C421.83,132.05,421.87,132.76,421.91,133.47Z" transform="translate(-0.05 -95.4)"/><path class="cls-1" d="M37.93,124.56h3.6A13.35,13.35,0,0,1,46,125.64a2.66,2.66,0,0,1,1.62,2.76c0,.13-.08.29,0,.39.58,1.36-.43,2.22-1,3.2-.07.11-.17.2-.25.31-1,1.49-1,1.49.59,2.45a4.16,4.16,0,0,1,1.73,4.72v.13c-.48,2.08-1,2.6-3.13,2.94a11.11,11.11,0,0,0-3,.7,2.85,2.85,0,0,1-1.19.1,9.46,9.46,0,0,0-1.86,0,33.93,33.93,0,0,1-4.25,0c-.58-.1-1.38,0-1.54-.78s.57-1.11,1.16-1.42a2,2,0,0,1,.36-.17,1.69,1.69,0,0,0,1.37-2l0-.12a24.46,24.46,0,0,1,.45-5.15,2.06,2.06,0,0,0,.09-.66,16.66,16.66,0,0,1-.5-4.71c0-.4-.29-.62-.59-.83a8.52,8.52,0,0,1-1.17-.88.93.93,0,0,1,.38-1.67A9.25,9.25,0,0,1,37.93,124.56Zm2.82,9.66c-.76,2.75-.76,3-.16,5.82a.69.69,0,0,0,.43.6,5.63,5.63,0,0,0,2.18.5,1.72,1.72,0,0,0,1.69-1.39c.44-1.29-.05-2.51-.14-3.76a1,1,0,0,0-1-.87,4.67,4.67,0,0,1-2.23-.76.93.93,0,0,0-.77-.13Zm-.32-3.91a5.53,5.53,0,0,0,0,.77c.13.94.61,1.21,1.47.74a6.06,6.06,0,0,1,1.51-.48.76.76,0,0,0,.66-.56,3.22,3.22,0,0,0-1.51-3.87,1.2,1.2,0,0,0-1.92,1c-.1.78-.14,1.56-.22,2.41Z" transform="translate(-0.05 -95.4)"/><path class="cls-1" d="M276.77,130v-2a2,2,0,0,0-1.64-2.31H275c-.55-.18-1.11-.32-1.65-.53s-.89-.47-.78-1.08a1.05,1.05,0,0,1,1-.87,5.77,5.77,0,0,1,1.46-.1c2.07.32,4.18,0,6.24.44.38.09.85,0,1,.48s-.16.75-.5,1l-.21.17c-2.42,2.18-2.39,2.18-2.76,5.45-.23,2-.43,4.06-.49,6.11a6,6,0,0,1-3.45,5.13,2,2,0,0,0-.34.2,6.23,6.23,0,0,1-5.93,1.31c-1.2-.28-2.47-.23-3.58-.88a5.65,5.65,0,0,1-2.81-3.51,13.83,13.83,0,0,1-.43-5,16.4,16.4,0,0,0-.48-5.95A5.85,5.85,0,0,0,259,125c-.32-.26-1-.31-.74-.91s.72-.44,1.16-.48a20.58,20.58,0,0,1,5-.12,4.44,4.44,0,0,0,1.59-.13,3.42,3.42,0,0,1,1.06-.07,1,1,0,0,1,.92.84.87.87,0,0,1-.58,1.06,4.79,4.79,0,0,1-.86.35,2.18,2.18,0,0,0-1.75,2.07,37.85,37.85,0,0,0,0,4.79,39.13,39.13,0,0,1,.25,4.77,1.25,1.25,0,0,0,.53,1.15,7.58,7.58,0,0,0,4.56,2.24c1.09.06,2.18.17,3.28.22a2.72,2.72,0,0,0,2.41-1.77c.31-1.46,1-2.87.77-4.43a1.34,1.34,0,0,1,.08-.66A7.47,7.47,0,0,0,276.77,130Z" transform="translate(-0.05 -95.4)"/><path class="cls-1" d="M209.39,142.47A3.83,3.83,0,0,0,208,143c-2.28,1.1-4.48.61-6.66-.3-.12-.05-.22-.17-.35-.19-2.22-.35-3.58-2-4.79-3.57a7.8,7.8,0,0,1-1.77-4.85,13.29,13.29,0,0,1,.71-4.27q.31-.58.68-1.12a6.11,6.11,0,0,0,1.67-1.86,6.36,6.36,0,0,1,2.2-1.88c1.45-1,3.21-1.15,4.87-1.55a1.44,1.44,0,0,1,.66,0c1.59.39,3.21.71,4.75,1.23a5.67,5.67,0,0,1,3.65,3.32,26.71,26.71,0,0,1,1.31,4.5c.57,2.66-.45,5-2.18,7A11.88,11.88,0,0,1,209.39,142.47Zm-10.33-10.13c0,.65-.46,1.26-.17,1.95a11.2,11.2,0,0,1,.63,3.25,2.65,2.65,0,0,0,.68,1.55,7.38,7.38,0,0,1,.61.7,4.74,4.74,0,0,0,3.61,2.33,14.39,14.39,0,0,0,2.88-.29.59.59,0,0,0,.56-.49,5.84,5.84,0,0,0,1.94-1.56,4.11,4.11,0,0,0,1.07-2.52,18.48,18.48,0,0,0,.13-2.79,10,10,0,0,0-.43-3.13c-.48-1.13-.9-2.3-1.46-3.4a2,2,0,0,0-.54-.75,6.68,6.68,0,0,0-5.52-1.24,4.81,4.81,0,0,0-3.75,3.2,4.11,4.11,0,0,0-.25,3.18Z" transform="translate(-0.05 -95.4)"/><path class="cls-1" d="M365.66,134.38a11.54,11.54,0,0,1,3.76-8.47,8.73,8.73,0,0,1,3.89-2c1.46-.39,3-.36,4.4-.87a2.58,2.58,0,0,1,2,.16,3,3,0,0,0,1.15.27,2.84,2.84,0,0,1,2.86,3.56c-.11.64,0,1.33-.66,1.8s-.86.49-1.34-.08-.86-1.13-1.31-1.69a4.12,4.12,0,0,0-3-1.77c-1.69-.06-3.4,0-4.67,1.42a3.39,3.39,0,0,1-.6.52c-2.81,1.92-3.5,4.71-3.08,7.85a8.77,8.77,0,0,0,1.34,3.42,13.36,13.36,0,0,0,2.44,2.67,7.16,7.16,0,0,0,1.85,1,3.94,3.94,0,0,0,3.46-.37c.81-.43.8-1.44,1-2.23a16.48,16.48,0,0,0,.18-2.26c.06-.61-.22-.88-.78-1a10,10,0,0,1-1.51-.5.87.87,0,0,1-.61-.8c0-.47.42-.53.72-.68a1.09,1.09,0,0,1,.64-.12c1.69.38,3.36-.12,5-.06h1.07a.64.64,0,0,1,.71.47.71.71,0,0,1-.17.85l-.72.6a1.7,1.7,0,0,0-.56,1.65,23.58,23.58,0,0,0,.26,3.11,1.2,1.2,0,0,1-.81,1.39c-1,.32-1.88,1.25-3.08,1.13-1.3.92-2.68.34-4.07.32a18.27,18.27,0,0,1-5.83-1.18,2.2,2.2,0,0,1-1.13-.66c-1.42-1.86-2.64-3.79-2.71-6.23C365.71,135.18,365.68,134.78,365.66,134.38Z" transform="translate(-0.05 -95.4)"/><path class="cls-1" d="M452.33,143.47a7.12,7.12,0,0,1-3.27-.51c-.64-.29-1.36-.07-2-.42-1.72-.88-3.17-1.92-3.65-3.94-.26-1.07-.89-2-1.14-3.11a43.42,43.42,0,0,1-.31-4.77c-.08-.74.57-1.27.85-1.91.18-.4.47-.76.64-1.16.44-1,.86-2,2.12-2.34.16,0,.29-.2.44-.29.59-.34.78-1.26,1.41-1.34a4,4,0,0,0,1.88-.39.22.22,0,0,1,.13,0c1.77.12,3.51-.63,5.28-.19a3.76,3.76,0,0,0,1.57.07c.69-.12,1.09.38,1.61.73a1.15,1.15,0,0,1,.44,1.56h0a1,1,0,0,0,.14,1,2.55,2.55,0,0,1,0,2.43c-.22.56-.59.62-1,.22a5.24,5.24,0,0,1-.78-.91c-.44-.62-.85-1.25-1.26-1.89a1.76,1.76,0,0,0-1.6-1c-.78,0-1.45-.65-2.15-.58s-1.28.75-2,.85c-1.2.16-1.81,1.23-2.73,1.82a.43.43,0,0,0-.15.35c.14,1-.56,1.76-.72,2.66a8.92,8.92,0,0,0-.16,3.78c.34,1.34.6,2.68,1.75,3.65.29.25.2,1,.49,1.19,1.57,1.24,3.07,2.73,5.38,2.17a5.82,5.82,0,0,1,1.46,0c1.22,0,1.71-.37,1.86-1.6a26.93,26.93,0,0,1,.91-3.2,1.66,1.66,0,0,1,1.67-1,1.31,1.31,0,0,1,1,1.39,7.94,7.94,0,0,0,.06,1.46,2.55,2.55,0,0,1-1,2.7,7.71,7.71,0,0,1-1.56,1c-.87.43-1.78.76-2.64,1.24A6.79,6.79,0,0,1,452.33,143.47Z" transform="translate(-0.05 -95.4)"/><path class="cls-1" d="M323.78,128.65a6.49,6.49,0,0,1-2.06-1.23,17.93,17.93,0,0,0-1.8-1.38,4.12,4.12,0,0,0-4.62.34c-.29.25-.25.48-.17.82a36.19,36.19,0,0,1,1,7.93c0,1.33.1,2.65,0,4s.16,1.71,1.53,2.2l.63.23a1,1,0,0,1-.25,2,10.2,10.2,0,0,1-3.14-.38,4.66,4.66,0,0,0-2.07,0c-1.06.26-2.2.08-3.29.29-.52.1-.57-.31-.48-.69a2,2,0,0,1,1.36-1.34c.28-.12.61-.14.88-.28A1.15,1.15,0,0,0,312,140a8.93,8.93,0,0,0-.19-2.11,12.2,12.2,0,0,1-.11-3.81,30,30,0,0,0-.22-5.61,8.26,8.26,0,0,1,0-1.87.75.75,0,0,0-.77-.86,5.33,5.33,0,0,1-1.82-.33.7.7,0,0,0-.63,0,3.86,3.86,0,0,1-2.32.86,1,1,0,0,0-.83.6c-.23.9-1.14,1.06-1.67,1.64-.32.36-.73.15-.75-.28a7.33,7.33,0,0,1,.37-3.55,1.23,1.23,0,0,1,1.49-.82,7.59,7.59,0,0,0,2.66,0,27.12,27.12,0,0,1,6.35,0c1.31.14,2.66-.23,4,.14a.68.68,0,0,0,.49-.15c1.41-1,3-.58,4.52-.48.68,0,1.58,1.33,1.49,2.16S323.95,127.47,323.78,128.65Z" transform="translate(-0.05 -95.4)"/><path class="cls-1" d="M251.33,123.28h1.47a2.24,2.24,0,0,1,2.31,2.47,5.34,5.34,0,0,1-.25,1.84c-.22.58-.83.71-1.09.18-.38-.81-1.15-1.2-1.65-1.88a2.18,2.18,0,0,0-3.79.58,3.49,3.49,0,0,0,2.12,4.4,6.89,6.89,0,0,1,3.12,2.13,9.56,9.56,0,0,0,1.3,1.32,1.76,1.76,0,0,1,.77,1.59,9,9,0,0,1-.88,4.75c-.61,1-1.24,2.07-2.65,2.17a2.63,2.63,0,0,0-1,.35,4.91,4.91,0,0,1-3.74.25c-.47-.13-1-.22-1.43-.32a2.86,2.86,0,0,1-2.31-3.32l0-.17c.14-.6.57-.8,1.09-.48a1.81,1.81,0,0,1,.77,1,2.15,2.15,0,0,0,1.23,1.45c1.13.26,2.31.84,3.5.3s1.94-2.83,1.48-4.2a4.45,4.45,0,0,0-2.1-2.27c-.93-.6-1.92-1.11-2.84-1.73a4.67,4.67,0,0,1-2.3-4,8.52,8.52,0,0,1,.4-3.28c.08-.2.09-.48.24-.61,1.48-1.23,2.78-2.8,5-2.61h1.2Z" transform="translate(-0.05 -95.4)"/><path class="cls-1" d="M288.33,124.62a12.09,12.09,0,0,0,3.81-.15,3.91,3.91,0,0,1,1.32,0,.75.75,0,0,1,.8.58.83.83,0,0,1-.7.86,2.36,2.36,0,0,0-2,1.15,4,4,0,0,0-.63,2.68c.4,2.18-.13,4.33-.08,6.49a15,15,0,0,0,.73,3.18,3.18,3.18,0,0,1,.21.6c.07,1,.2,1.1,1.22,1.22a7.12,7.12,0,0,0,6.86-2.95c.2-.26.3-.74.77-.58a1,1,0,0,1,.67,1,2.89,2.89,0,0,1-.6,2.12,4,4,0,0,0-.74,1.26,1.31,1.31,0,0,1-1.55,1l-.23-.07a6.18,6.18,0,0,0-3.65,0,1.07,1.07,0,0,1-.53,0c-2.52-.42-5,.16-7.54,0a3.4,3.4,0,0,1-1.56-.29.8.8,0,0,1-.51-.84.74.74,0,0,1,.58-.65l.12-.05c1.74-.13,2-1.4,2-2.75V136c0-.22-.1-.5,0-.66.61-1,.24-2.06.16-3.1v-1.71a8.23,8.23,0,0,0-1.47-5.23c-.38-.51-.17-1,.48-1S287.95,124.59,288.33,124.62Z" transform="translate(-0.05 -95.4)"/><path class="cls-1" d="M334.33,143.19c-1.68.07-3.37.13-5,.21a8.45,8.45,0,0,1-1.86,0c-.44-.07-.76-.29-.78-.77s.37-.67.76-.79l.39-.08a2.57,2.57,0,0,0,2.31-3.39,2.65,2.65,0,0,1,0-1.31,8.59,8.59,0,0,0,0-3.95,2.26,2.26,0,0,1,0-.91,8.94,8.94,0,0,0,0-3.18,9.76,9.76,0,0,1-.08-1.46,1.54,1.54,0,0,0-1.31-1.74h-.1c-.39-.07-.8-.05-1.19-.12-.59-.1-.78-.53-.79-1.07s.35-.79.84-.83a12,12,0,0,1,1.2,0,30,30,0,0,0,4.79-.3,9.91,9.91,0,0,1,2.79.13c.33,0,.63.09.69.48s.08.86-.38,1c-.69.25-1.18.81-1.82,1.07a1.52,1.52,0,0,0-1,1.56c0,2.49-.2,5-.3,7.44,0,.77.41,1.49.34,2.23a7.59,7.59,0,0,0,.55,3.07c.29.95.31,1,1.28.89s1.69.23,1.76.78-.61,1.16-1.63,1.2h-1.47Z" transform="translate(-0.05 -95.4)"/><path class="cls-1" d="M469.43,140.58c0,.47.11,1-.24,1.5a2,2,0,0,1-2.61.93c-2-.54-2.69-1.64-2.4-3.53a2.27,2.27,0,0,1,3-2C468.91,137.91,469.43,138.6,469.43,140.58Z" transform="translate(-0.05 -95.4)"/><path class="cls-1" d="M66,135.79a7.13,7.13,0,0,1,1,2.82,2.57,2.57,0,0,0,1.85,2.33,2,2,0,0,1,.48.23c.83.5.84,1.26,0,1.71a3.59,3.59,0,0,1-1.65.43H66.26a3,3,0,0,0-2.2-.14,3.78,3.78,0,0,1-2-.14c-.35-.12-.66-.3-.65-.74s.25-.54.57-.65l.12-.05c1.62-.73,1.6-.72,1.35-2.44-.09-.66-.41-1.24-.46-1.93s-1.29-1.36-2.14-1.06a4.12,4.12,0,0,1-1.56.18,3.17,3.17,0,0,0-3.14,4.27,1.15,1.15,0,0,0,1.07.86c.53,0,1.18.11,1.2.79s-.69.83-1.24,1a3.92,3.92,0,0,1-1.57.13,9.88,9.88,0,0,0-2.52.06,3.77,3.77,0,0,1-1.19,0c-.47-.11-.84-.31-.93-.82a.94.94,0,0,1,.56-1,6.48,6.48,0,0,1,.83-.42,3.3,3.3,0,0,0,1.6-1.7,38.48,38.48,0,0,0,2.56-6.83c.25-.89.79-1.67,1-2.6a11.5,11.5,0,0,0,.43-3.15A1.55,1.55,0,0,1,59,125.17a5.48,5.48,0,0,0,1.55-1c.49-.42.8-.23,1.1.17a5.79,5.79,0,0,1,.76,2.12,24,24,0,0,0,1.53,4.2A39.35,39.35,0,0,1,66,135.79Zm-8-2.3a7.52,7.52,0,0,0,.1.79c0,.21.17.51.39.47,1-.16,2,.33,3,.27.43,0,.65-.18.51-.67a15.22,15.22,0,0,1-.43-2.48,3.7,3.7,0,0,0-.56-1.34c-.65-1.11-1.62-.94-2.28.05a4.87,4.87,0,0,0-.72,2.89Z" transform="translate(-0.05 -95.4)"/><path class="cls-1" d="M117.59,129.19a9.7,9.7,0,0,1-.29,1.78c-.1.81.12,1,.91,1.12a3,3,0,0,0,3.55-2.32l0-.08c.08-.47.3-.74.77-.75a1,1,0,0,1,1,.68,2,2,0,0,1-.09,1.68,2,2,0,0,0-.12,1.66,21.49,21.49,0,0,1,.47,2.48,1.47,1.47,0,0,1-.12.78c-.14.39-.38.75-.82.77s-.4-.41-.55-.66l-.69-1.14c-.6-.94-1.32-1.53-2.55-1.06-.46.18-1.06-.1-1.47.41a2.35,2.35,0,0,0-.28,1.93,8.19,8.19,0,0,0,1,3.94,1.43,1.43,0,0,0,1.35.69c2.34-.19,4.56-.69,6.26-2.5a2.69,2.69,0,0,1,1.38-.77c.55-.13.85.12.89.68a1.45,1.45,0,0,1,0,.4,11.79,11.79,0,0,1-1.68,3.71c-.63,1-1.87.81-2.84.64a8.67,8.67,0,0,0-3.29,0,8.18,8.18,0,0,1-1.46,0,58.88,58.88,0,0,0-6.37.12,2,2,0,0,1-1-.23,1,1,0,0,1-.32-1.75,3.56,3.56,0,0,1,1-.66,2.23,2.23,0,0,0,1.42-2.8,3.57,3.57,0,0,1,0-1.46,2.67,2.67,0,0,0,0-1.44,2.38,2.38,0,0,1-.07-.79,12.25,12.25,0,0,0-.27-4.78c.56-1.56-.34-2.55-1.41-3.4a1.06,1.06,0,0,1,.34-1.9,4.78,4.78,0,0,1,3.36-.46,2.36,2.36,0,0,0,1.44,0,1.78,1.78,0,0,1,.92-.08,16.13,16.13,0,0,0,5.83,0c1.43-.2,2.05.26,2.31,1.7a7.54,7.54,0,0,1,.21,2.14c-.08.76-.64,1.17-1.28.78s-1.75-.68-2.34-1.47a1.33,1.33,0,0,0-1.16-.52,4.61,4.61,0,0,1-1-.14c-1.86-.44-2.91.36-3,2.27A5.45,5.45,0,0,0,117.59,129.19Z" transform="translate(-0.05 -95.4)"/><path class="cls-1" d="M149.33,143.27a3.86,3.86,0,0,1-1.31-.19,5,5,0,0,0-2-.29,2.24,2.24,0,0,1-2.34-1.41,10.07,10.07,0,0,1-.68-1.45,13.27,13.27,0,0,0-3.4-4.88,2.36,2.36,0,0,0-.63-.48c-.71-.34-1.13-.13-1.1.68.05,1.44-.58,2.9.12,4.32a.58.58,0,0,1,0,.39c-.22.68.16.87.73,1a1.63,1.63,0,0,1,.62.22.79.79,0,0,1-.07,1.4,3,3,0,0,1-1.44.2,15.33,15.33,0,0,0-4.89.44c-.7.25-1.26-.29-1.81-.64-.29-.18-.16-.47,0-.7a1.9,1.9,0,0,1,1.5-.72c1.3-.1,1.42-.26,1.47-1.53a2.28,2.28,0,0,1,.08-.92c.6-1.13.2-2.26,0-3.37a9.53,9.53,0,0,1,0-2.91,20.17,20.17,0,0,0,.15-5,2.31,2.31,0,0,0-1.74-2,4.41,4.41,0,0,0-.66-.09c-.42-.07-.8-.24-.76-.75s.42-.57.78-.56c1.18,0,2.31-.44,3.55-.08a8.51,8.51,0,0,0,2.92.07,17.57,17.57,0,0,1,5.51.72,4.15,4.15,0,0,1,2.69,3.32,4,4,0,0,1-2.29,3.47l-1.1.48c-.9.38-1,.71-.67,1.62a3.52,3.52,0,0,0,1,1.24,7.12,7.12,0,0,1,1.88,2.38,8,8,0,0,0,3,3.29,1.77,1.77,0,0,0,1,.33,2.7,2.7,0,0,1,.66.07c.69.18,1.17.71,1.1,1.15a1.65,1.65,0,0,1-1.32,1.14A4.71,4.71,0,0,1,149.33,143.27ZM139.6,125.4c-1.31,0-1.93.29-2,1.18a19.22,19.22,0,0,0,0,4.88,1.72,1.72,0,0,0,1.29,1.38c.8.24,3.2-1,3.48-1.78a.91.91,0,0,0,0-.13,5,5,0,0,0-1.42-5,1.61,1.61,0,0,0-1.35-.53Z" transform="translate(-0.05 -95.4)"/><path class="cls-1" d="M107.54,128.59a5.92,5.92,0,0,1-2-1.2c-.49-.38-1-.78-1.48-1.13a4.34,4.34,0,0,0-4.64-.07.86.86,0,0,0-.43,1.09,34.34,34.34,0,0,1,1,8v4c0,1.35.15,1.47,1.37,1.93.33.13.65.28,1,.43a.86.86,0,0,1,.56,1,1,1,0,0,1-.73.88,1.73,1.73,0,0,1-1.18.07c-.85-.31-1.77-.13-2.61-.47a1.34,1.34,0,0,0-.92-.06c-1.1.45-2.3.07-3.41.45a1.54,1.54,0,0,1-.66,0c-.45-.05-.62-.31-.47-.75a2,2,0,0,1,1.39-1.29c1.95-.5,1.79-1.38,1.53-2.69a25.85,25.85,0,0,1-.18-6.77c0-.81-.23-1.65-.22-2.5a26.52,26.52,0,0,0-.08-2.66.92.92,0,0,0-.29-.84c-.54-.39-1.23-.18-1.8-.39a1.4,1.4,0,0,0-1.7.24,1.5,1.5,0,0,1-1.11.37,1.7,1.7,0,0,0-1.7,1.06c-.29.74-1.09.87-1.6,1.34-.35.33-.72-.14-.7-.46.09-1.18-.1-2.41.49-3.52.27-.51.69-.9,1.28-.73,1.53.42,3-.17,4.5-.16s2.72,0,4.07.06H99a5.85,5.85,0,0,1,1.46,0,2.78,2.78,0,0,0,2-.27c1.28-.65,2.71-.36,4.06-.18.64.08,1.45,1.52,1.44,2.26,0,.49-.24.94-.21,1.44A3.36,3.36,0,0,1,107.54,128.59Z" transform="translate(-0.05 -95.4)"/><path class="cls-1" d="M79.62,123.28h1.6a2.19,2.19,0,0,1,2.2,2.64c-.05.49-.05,1-.11,1.46a.66.66,0,0,1-.57.65.6.6,0,0,1-.66-.36c-.36-.86-1.18-1.31-1.76-2a2.12,2.12,0,0,0-3.68,1,3.28,3.28,0,0,0,2.22,4.07,9.21,9.21,0,0,1,3,2.07,8.58,8.58,0,0,0,.9,1,2.74,2.74,0,0,1,1.14,2.78,8.51,8.51,0,0,1-.7,3.74c-.69,1.27-1.41,2.3-3,2.49-.86.11-1.58.72-2.53.76a14.29,14.29,0,0,1-3.91-.7,2.79,2.79,0,0,1-1.88-2.65c0-.49,0-1,.59-1.22s.91.26,1.17.68a8.7,8.7,0,0,1,.48.95c.49,1.06,1.56,1.05,2.46,1.27a3,3,0,0,0,3.6-3.6,4.22,4.22,0,0,0-2.49-3c-.92-.53-1.83-1.11-2.71-1.69a4.29,4.29,0,0,1-2.12-3.77,9.65,9.65,0,0,1,.3-3.3c.08-.21.09-.49.23-.61,1.41-1.16,2.58-2.76,4.71-2.66h1.52Z" transform="translate(-0.05 -95.4)"/></svg>