<svg id="Layer_1" data-name="Layer 1" xmlns="http://www.w3.org/2000/svg" viewBox="0 0 339.37 255.15"><defs><style>.cls-1,.cls-10,.cls-12,.cls-13,.cls-14,.cls-15{fill:#fff;}.cls-2,.cls-3,.cls-4,.cls-5,.cls-6,.cls-7,.cls-8,.cls-9{fill:none;}.cls-12,.cls-2,.cls-3{stroke:#1a6191;}.cls-2,.cls-3{stroke-linecap:round;stroke-linejoin:round;}.cls-3{stroke-dasharray:4.79 7.67;}.cls-13,.cls-4,.cls-5{stroke:#ff9e15;}.cls-10,.cls-12,.cls-13,.cls-14,.cls-15,.cls-4,.cls-5,.cls-6,.cls-7,.cls-8,.cls-9{stroke-miterlimit:10;}.cls-5{stroke-dasharray:4.74 7.58;}.cls-14,.cls-6,.cls-7{stroke:#ff2a2a;}.cls-7{stroke-dasharray:4.82 7.71;}.cls-15,.cls-8,.cls-9{stroke:#62ad28;}.cls-9{stroke-dasharray:5.3 8.49;}.cls-10{stroke:#505556;stroke-width:5px;}.cls-11{fill:#505556;}</style></defs><title>outsource</title><line class="cls-1" x1="143.11" y1="171.59" x2="49.94" y2="108.84"/><line class="cls-2" x1="143.11" y1="171.59" x2="141.03" y2="170.19"/><line class="cls-3" x1="134.67" y1="165.91" x2="55.19" y2="112.37"/><line class="cls-2" x1="52.02" y1="110.23" x2="49.94" y2="108.84"/><line class="cls-1" x1="161.91" y1="167.71" x2="124.3" y2="89.88"/><line class="cls-4" x1="161.91" y1="167.71" x2="160.83" y2="165.46"/><line class="cls-5" x1="157.53" y1="158.64" x2="127.04" y2="95.54"/><line class="cls-4" x1="125.39" y1="92.13" x2="124.3" y2="89.88"/><line class="cls-1" x1="179.91" y1="165.21" x2="203.75" y2="107.09"/><line class="cls-6" x1="179.91" y1="165.21" x2="180.86" y2="162.9"/><line class="cls-7" x1="183.79" y1="155.77" x2="201.34" y2="112.97"/><line class="cls-6" x1="202.8" y1="109.4" x2="203.75" y2="107.09"/><line class="cls-1" x1="196.16" y1="172.69" x2="289.75" y2="150.31"/><line class="cls-8" x1="196.16" y1="172.69" x2="198.59" y2="172.11"/><line class="cls-9" x1="206.85" y1="170.14" x2="283.19" y2="151.88"/><line class="cls-8" x1="287.32" y1="150.89" x2="289.75" y2="150.31"/><rect class="cls-10" x="122.69" y="185.38" width="92" height="54" rx="6.51" ry="6.51"/><path class="cls-11" d="M239.26,307.27H192v.88a.73.73,0,0,1-.73.73H175.31a.73.73,0,0,1-.73-.73v-.88h-47.3a1.24,1.24,0,0,0-1.24,1.24V310a5,5,0,0,0,5,5H235.52a5,5,0,0,0,5-5v-1.45A1.24,1.24,0,0,0,239.26,307.27Z" transform="translate(-14.59 -59.79)"/><circle class="cls-12" cx="17.96" cy="67.15" r="14.28"/><path class="cls-12" d="M18,84.86h0a17.46,17.46,0,0,1,17.46,17.46v15.86A10.81,10.81,0,0,1,24.61,129H11.31A10.81,10.81,0,0,1,.5,118.17V102.32A17.46,17.46,0,0,1,18,84.86Z"/><circle class="cls-13" cx="112.6" cy="14.78" r="14.28"/><path class="cls-13" d="M112.6,32.48h0a17.46,17.46,0,0,1,17.46,17.46V65.8a10.81,10.81,0,0,1-10.81,10.81H106A10.81,10.81,0,0,1,95.14,65.8V49.94A17.46,17.46,0,0,1,112.6,32.48Z"/><circle class="cls-14" cx="210.69" cy="32.1" r="14.28"/><path class="cls-14" d="M210.69,49.8h0a17.46,17.46,0,0,1,17.46,17.46V83.12a10.81,10.81,0,0,1-10.81,10.81H204a10.81,10.81,0,0,1-10.81-10.81V67.26A17.46,17.46,0,0,1,210.69,49.8Z"/><circle class="cls-15" cx="321.41" cy="102.21" r="14.28"/><path class="cls-15" d="M321.41,119.91h0a17.46,17.46,0,0,1,17.46,17.46v15.86A10.81,10.81,0,0,1,328.06,164H314.77A10.81,10.81,0,0,1,304,153.23V137.37a17.46,17.46,0,0,1,17.46-17.46Z"/></svg>